<svg width="240" height="300" viewBox="0 0 240 300" fill="none" xmlns="http://www.w3.org/2000/svg">
<rect width="240" height="300" rx="10" fill="white"/>
<path d="M163.266 101.694C163.265 101.117 163.111 100.548 162.814 100.033C162.517 99.5172 162.086 99.0694 161.556 98.7249C161.026 98.3805 160.411 98.149 159.76 98.0488C159.11 97.9487 158.441 97.9826 157.808 98.148L101.25 112.964C100.376 113.193 99.6099 113.661 99.0649 114.3C98.5198 114.939 98.2251 115.714 98.2245 116.511V165.291C94.5555 163.06 90.1299 161.98 85.6681 162.226C81.2064 162.471 76.9712 164.029 73.6522 166.644C70.3331 169.259 68.1256 172.779 67.3891 176.629C66.6525 180.48 67.4303 184.435 69.5958 187.85C71.7612 191.265 75.1869 193.94 79.315 195.439C83.4431 196.937 88.0306 197.171 92.3305 196.103C96.6305 195.035 100.39 192.727 102.996 189.555C105.603 186.384 106.903 182.535 106.685 178.636L106.708 178.245V139.022L154.782 126.428V155.418C151.113 153.188 146.688 152.107 142.226 152.353C137.764 152.599 133.529 154.156 130.21 156.771C126.891 159.387 124.683 162.906 123.947 166.757C123.21 170.607 123.988 174.562 126.153 177.977C128.319 181.393 131.745 184.067 135.873 185.566C140.001 187.065 144.588 187.299 148.888 186.231C153.188 185.162 156.947 182.854 159.554 179.683C162.161 176.511 163.461 172.662 163.243 168.763L163.266 168.368V101.694Z" fill="#222222"/>
</svg>
