<svg width="240" height="300" viewBox="0 0 240 300" fill="none" xmlns="http://www.w3.org/2000/svg">
<rect width="240" height="300" rx="10" fill="white"/>
<path d="M118 209.167C147.915 209.167 172.167 184.915 172.167 155C172.167 125.085 147.915 100.833 118 100.833C88.0846 100.833 63.8334 125.085 63.8334 155C63.8334 184.915 88.0846 209.167 118 209.167Z" stroke="#222222" stroke-width="10"/>
<path d="M101.279 176.309C108.093 178.015 115.823 178.015 123.606 175.93C131.39 173.845 138.085 169.977 143.133 165.091" stroke="#222222" stroke-width="10" stroke-linecap="round"/>
<path d="M133.694 150.792C136.583 150.018 137.984 145.876 136.823 141.542C135.661 137.208 132.377 134.321 129.488 135.096C126.598 135.87 125.197 140.011 126.359 144.346C127.52 148.68 130.804 151.566 133.694 150.792Z" fill="#222222"/>
<path d="M102.304 159.208C105.193 158.434 106.594 154.292 105.433 149.958C104.272 145.624 100.988 142.738 98.0979 143.512C95.2083 144.286 93.8073 148.428 94.9687 152.762C96.1302 157.096 99.4141 159.982 102.304 159.208Z" fill="#222222"/>
<path d="M123.417 176.667L126.006 181.943C126.474 182.903 127.128 183.762 127.929 184.47C128.729 185.178 129.662 185.721 130.673 186.067C131.684 186.414 132.754 186.558 133.82 186.491C134.887 186.424 135.93 186.147 136.89 185.676C137.849 185.205 138.706 184.549 139.412 183.746C140.118 182.943 140.658 182.009 141.002 180.997C141.346 179.985 141.487 178.915 141.417 177.849C141.347 176.782 141.067 175.74 140.593 174.782L138.101 169.717" stroke="#222222" stroke-width="10"/>
</svg>
