<svg width="240" height="300" viewBox="0 0 240 300" fill="none" xmlns="http://www.w3.org/2000/svg">
<rect width="240" height="300" rx="10" fill="white"/>
<path d="M152.5 182.5H139.5V221.5H126.5V182.5H112.72L102.71 195.045L118.115 210.385L108.885 219.615L93.545 204.21C91.27 202 89.97 198.945 89.775 195.76C89.58 192.575 90.555 189.39 92.57 186.92L96.08 182.5H87.5L100.5 156.5V137C96.47 140.055 93.22 143.955 90.945 148.44C88.67 152.99 87.5 157.93 87.5 163H74.5C74.5 150.933 79.2937 139.36 87.8266 130.827C96.3595 122.294 107.933 117.5 120 117.5C128.645 117.5 136.9 114.055 143.01 108.01C149.055 101.9 152.5 93.645 152.5 85H165.5C165.5 93.58 163.03 102.03 158.415 109.245C153.821 116.509 147.262 122.324 139.5 126.015V156.5L152.5 182.5ZM133 98C133 100.6 132.22 103.07 130.79 105.215C129.36 107.36 127.345 109.05 125.005 110.025C122.625 111.004 120.008 111.255 117.486 110.746C114.963 110.237 112.649 108.991 110.835 107.165C109.015 105.345 107.78 103.07 107.26 100.535C106.74 98 107 95.4 107.975 93.06C108.95 90.655 110.64 88.64 112.785 87.21C114.93 85.78 117.4 85 120 85C123.445 85 126.76 86.365 129.165 88.835C131.635 91.24 133 94.555 133 98Z" fill="#222222"/>
</svg>
