<svg width="240" height="300" viewBox="0 0 240 300" fill="none" xmlns="http://www.w3.org/2000/svg">
<rect width="240" height="300" rx="10" fill="white"/>
<path d="M146.67 145.351C145.923 146.789 144.988 148.003 143.858 148.985L143.857 148.986C142.604 150.07 141.299 150.941 139.945 151.598C140.146 157.567 140.484 163.476 140.962 169.325C141.437 175.135 142.119 180.971 143.007 186.833H162.041C160.65 181.302 159.702 175.735 159.203 170.13C158.703 164.478 158.363 158.776 158.182 153.026C155.675 152.727 153.369 151.882 151.271 150.491C149.324 149.2 147.79 147.483 146.67 145.351ZM120 145.132C118.671 147.599 116.814 149.556 114.428 150.989C111.911 152.501 109.214 153.224 106.348 153.158C106.147 158.862 105.821 164.507 105.368 170.094H105.367C104.912 175.657 104.246 181.237 103.372 186.833H136.628C135.754 181.237 135.088 175.657 134.633 170.094H134.632C134.179 164.503 133.852 158.856 133.651 153.152C130.942 153.215 128.403 152.589 126.043 151.272L125.544 150.982C123.177 149.552 121.329 147.598 120 145.132ZM93.3301 145.416C92.0905 147.484 90.5216 149.179 88.6201 150.491C86.5978 151.887 84.3272 152.73 81.8174 153.026C81.6357 158.773 81.2971 164.474 80.7969 170.13C80.3011 175.735 79.353 181.302 77.9551 186.833H96.9941C97.8984 180.971 98.586 175.134 99.0537 169.32C99.5211 163.475 99.8536 157.568 100.054 151.598C98.7048 150.943 97.4339 150.09 96.2441 149.036C95.1425 148.06 94.1739 146.85 93.3301 145.416ZM69.8418 134.5C69.929 137.715 70.8609 140.548 72.6348 143.014C74.4734 145.571 76.9144 146.833 80 146.833C83.0855 146.833 85.5256 145.571 87.3643 143.014C89.1383 140.548 90.071 137.715 90.1582 134.5H69.8418ZM96.5088 134.5C96.596 137.715 97.5278 140.548 99.3018 143.014C101.14 145.571 103.581 146.833 106.667 146.833C109.752 146.833 112.193 145.571 114.031 143.014C115.805 140.548 116.737 137.715 116.824 134.5H96.5088ZM123.176 134.5C123.263 137.715 124.195 140.548 125.969 143.014C127.807 145.571 130.248 146.833 133.333 146.833C136.419 146.833 138.86 145.571 140.698 143.014C142.472 140.548 143.404 137.715 143.491 134.5H123.176ZM149.842 134.5C149.929 137.715 150.861 140.548 152.635 143.014C154.473 145.571 156.914 146.833 160 146.833C163.086 146.833 165.527 145.571 167.365 143.014C169.139 140.548 170.071 137.715 170.158 134.5H149.842ZM120 100.055C113.764 105.798 107.02 111.145 99.7646 116.093V116.094C93.0066 120.699 85.8555 124.722 78.3145 128.167H161.686C154.145 124.722 146.993 120.699 140.235 116.094C132.98 111.149 126.236 105.802 120 100.055ZM176.5 134C176.5 138.683 175.416 142.637 173.219 145.831L173.003 146.138C170.759 149.256 167.925 151.385 164.511 152.513C164.694 159.258 165.132 165.949 165.825 172.588C166.529 179.325 167.959 185.965 170.117 192.51L170.334 193.167H69.666L69.8828 192.51C72.0406 185.965 73.471 179.325 74.1748 172.588C74.8683 165.949 75.3047 159.258 75.4883 152.513C72.295 151.458 69.6104 149.527 67.4404 146.73L66.9971 146.138C64.6545 142.892 63.5 138.834 63.5 134V127.484L63.8428 127.371C73.6093 124.144 83.5657 119.248 93.7119 112.679C103.86 106.108 112.502 99.0831 119.639 91.6063L120 91.2284L120.361 91.6063C127.498 99.0796 136.139 106.104 146.288 112.679C156.434 119.251 166.39 124.147 176.156 127.371L176.5 127.484V134Z" fill="#222222" stroke="#222222"/>
</svg>
