<svg width="240" height="300" viewBox="0 0 240 300" fill="none" xmlns="http://www.w3.org/2000/svg">
<rect width="240" height="300" rx="10" fill="white"/>
<path d="M158.517 104.992L140.504 108.567L153.062 124.792L162.092 122.958L158.517 104.992ZM127.029 111.225L118 113.013L130.604 129.192L139.587 127.404L127.029 111.225ZM104.571 115.625L95.5417 117.504L108.146 133.683L117.129 131.896L104.571 115.625ZM82.0667 120.208C80.4917 120.629 76 121.5 68.5 123.5C69.5 128 70 129.5 70.3792 131.85L72.1667 140.833L94.625 136.387L82.0667 120.208ZM72.1667 140.833V186.667C72.1667 189.098 73.1324 191.429 74.8515 193.148C76.5706 194.868 78.9022 195.833 81.3333 195.833H154.667C159.754 195.833 163.833 191.754 163.833 186.667V140.833H72.1667Z" fill="#222222"/>
<line x1="68.8018" y1="124.02" x2="157.802" y2="106.02" stroke="#222222" stroke-width="2"/>
<line x1="72.8018" y1="140.02" x2="161.802" y2="122.02" stroke="#222222" stroke-width="2"/>
</svg>
