<svg width="240" height="300" viewBox="0 0 240 300" fill="none" xmlns="http://www.w3.org/2000/svg">
<rect width="240" height="300" rx="10" fill="white"/>
<path d="M68.8672 98.8672V119.122C74.9649 116.421 80.2526 111.559 84.2049 106.288C83.2033 105.543 82.2771 104.77 81.4409 103.97C79.8034 102.402 78.4756 100.696 77.67 98.8672H68.8672ZM82.1346 98.8672C82.6455 99.6209 83.297 100.393 84.1155 101.177C86.4208 103.384 89.8099 105.563 93.7577 107.432C101.653 111.172 111.793 113.691 120 113.691C128.207 113.691 138.347 111.172 146.242 107.432C150.19 105.563 153.579 103.384 155.884 101.177C156.703 100.393 157.354 99.6209 157.865 98.8672H82.1346ZM162.33 98.8672C161.524 100.696 160.197 102.402 158.559 103.97C157.723 104.77 156.797 105.543 155.795 106.288C159.748 111.559 165.035 116.421 171.133 119.122V98.8672H162.33ZM144.594 102.462C141.222 106.373 131.264 109.035 120 109.036C108.776 109.031 98.8508 106.384 95.4571 102.491C101.305 104.809 110.376 106.169 120 106.172C129.658 106.167 138.755 104.795 144.594 102.462ZM87.5124 108.488C82.9115 114.748 76.5511 120.441 68.8672 123.314V160.704C69.3218 160.877 69.7506 160.957 70.1562 160.957C71.942 160.818 72.7978 159.855 74.093 158.812C80.4455 153.651 84.6752 144.575 88.0693 133.226C90.043 126.626 91.7508 119.28 93.5134 111.574C93.0403 111.364 92.5698 111.148 92.1019 110.927C90.488 110.163 88.9501 109.349 87.5124 108.489V108.488ZM152.488 108.488C151.05 109.349 149.512 110.163 147.899 110.927C147.43 111.148 146.96 111.363 146.487 111.573C148.249 119.28 149.957 126.626 151.931 133.226C155.325 144.575 159.554 153.651 165.907 158.812C167.07 159.811 168.317 160.937 169.844 160.957C170.249 160.957 170.678 160.877 171.133 160.704V123.314C163.449 120.441 157.088 114.748 152.488 108.488ZM74.9107 163.179C73.429 164.221 71.8305 164.824 70.1562 164.824C69.7212 164.824 69.2913 164.782 68.8672 164.703V191.172C70.2149 191.604 71.8961 191.895 73.5938 191.895C76.26 191.895 78.8869 191.178 80.241 190.323C80.2324 180.965 80.032 171.407 74.9107 163.179ZM165.089 163.179C159.968 171.407 159.768 180.965 159.759 190.323C161.113 191.178 163.74 191.895 166.406 191.895C168.104 191.895 169.785 191.604 171.133 191.172V164.703C170.708 164.783 170.276 164.823 169.844 164.824C168.17 164.824 166.571 164.221 165.089 163.179ZM83.99 182.871C84.1189 185.724 84.1211 188.537 84.1211 191.25V192.051L83.5546 192.617C81.152 195.019 77.3535 195.762 73.5938 195.762C71.9878 195.762 70.3754 195.625 68.8672 195.282V199.629H171.133V195.282C169.625 195.625 168.012 195.762 166.406 195.762C162.646 195.762 158.848 195.019 156.445 192.617L155.879 192.051V191.25C155.879 188.537 155.881 185.724 156.01 182.871H83.99Z" fill="#222222"/>
<path d="M134.666 132.625C134.666 132.43 134.614 132.237 134.513 132.062C134.413 131.887 134.267 131.735 134.087 131.619C133.907 131.502 133.699 131.423 133.478 131.389C133.257 131.355 133.031 131.367 132.816 131.423L113.644 136.446C113.348 136.523 113.088 136.682 112.903 136.898C112.719 137.115 112.619 137.378 112.618 137.648V154.183C111.375 153.427 109.875 153.061 108.362 153.144C106.85 153.228 105.414 153.755 104.289 154.642C103.164 155.529 102.415 156.722 102.166 158.027C101.916 159.332 102.18 160.673 102.914 161.831C103.648 162.988 104.809 163.895 106.208 164.403C107.608 164.911 109.163 164.99 110.621 164.628C112.078 164.266 113.352 163.484 114.236 162.409C115.12 161.333 115.56 160.029 115.487 158.707L115.494 158.575V145.278L131.791 141.009V150.837C130.547 150.081 129.047 149.714 127.534 149.798C126.022 149.881 124.586 150.409 123.461 151.295C122.336 152.182 121.588 153.375 121.338 154.68C121.088 155.985 121.352 157.326 122.086 158.484C122.82 159.642 123.981 160.548 125.381 161.056C126.78 161.564 128.335 161.644 129.793 161.282C131.25 160.919 132.525 160.137 133.408 159.062C134.292 157.987 134.732 156.682 134.659 155.36L134.666 155.226V132.625Z" fill="#222222"/>
</svg>
