<svg width="240" height="300" viewBox="0 0 240 300" fill="none" xmlns="http://www.w3.org/2000/svg">
<rect width="240" height="300" rx="10" fill="white"/>
<g clip-path="url(#clip0_103_118)">
<path d="M102.188 131.812C102.188 136.537 104.064 141.067 107.405 144.408C110.745 147.748 115.276 149.625 120 149.625C124.724 149.625 129.255 147.748 132.595 144.408C135.936 141.067 137.812 136.537 137.812 131.812C137.812 127.088 135.936 122.558 132.595 119.217C129.255 115.877 124.724 114 120 114C115.276 114 110.745 115.877 107.405 119.217C104.064 122.558 102.188 127.088 102.188 131.812Z" fill="#222222"/>
<path d="M93.6374 149.625C94.8972 149.625 96.1054 149.125 96.9962 148.234C97.887 147.343 98.3874 146.135 98.3874 144.875V125.875C98.3874 120.206 100.639 114.769 104.648 110.761C108.657 106.752 114.093 104.5 119.762 104.5C125.431 104.5 130.868 106.752 134.877 110.761C138.885 114.769 141.137 120.206 141.137 125.875V144.875C141.137 145.519 141.267 146.157 141.52 146.749C141.774 147.342 142.145 147.876 142.612 148.321C143.078 148.765 143.63 149.11 144.234 149.334C144.838 149.558 145.481 149.657 146.125 149.625C149.499 149.584 152.749 148.348 155.297 146.135C157.845 143.923 159.525 140.878 160.038 137.543C160.551 134.208 159.864 130.799 158.099 127.923C156.334 125.047 153.606 122.89 150.4 121.838C149.427 114.407 145.785 107.583 140.152 102.64C134.519 97.6964 127.281 94.9705 119.786 94.9705C112.292 94.9705 105.053 97.6964 99.4205 102.64C93.7878 107.583 90.1453 114.407 89.1724 121.838C85.97 122.889 83.2438 125.041 81.4783 127.912C79.7128 130.784 79.0221 134.188 79.5291 137.52C80.036 140.852 81.7078 143.897 84.2473 146.113C86.7868 148.329 90.0297 149.574 93.3999 149.625H93.6374ZM90.3124 176.937C90.3124 178.185 90.6196 179.42 91.2164 180.573C91.8131 181.726 92.6879 182.773 93.7906 183.655C94.8932 184.537 96.2023 185.237 97.6431 185.714C99.0838 186.192 100.628 186.437 102.187 186.437C103.747 186.437 105.291 186.192 106.732 185.714C108.173 185.237 109.482 184.537 110.584 183.655C111.687 182.773 112.562 181.726 113.159 180.573C113.755 179.42 114.062 178.185 114.062 176.937C114.062 175.69 113.755 174.455 113.159 173.302C112.562 172.149 111.687 171.102 110.584 170.22C109.482 169.338 108.173 168.638 106.732 168.161C105.291 167.683 103.747 167.437 102.187 167.437C100.628 167.437 99.0838 167.683 97.6431 168.161C96.2023 168.638 94.8932 169.338 93.7906 170.22C92.6879 171.102 91.8131 172.149 91.2164 173.302C90.6196 174.455 90.3124 175.69 90.3124 176.937ZM125.937 176.937C125.937 179.457 127.189 181.873 129.416 183.655C131.643 185.437 134.663 186.437 137.812 186.437C140.962 186.437 143.982 185.437 146.209 183.655C148.436 181.873 149.687 179.457 149.687 176.937C149.687 174.418 148.436 172.002 146.209 170.22C143.982 168.438 140.962 167.437 137.812 167.437C134.663 167.437 131.643 168.438 129.416 170.22C127.189 172.002 125.937 174.418 125.937 176.937Z" fill="#222222"/>
<path d="M176.288 192.612L160.518 160.028C159.772 158.344 158.554 156.914 157.01 155.911C155.467 154.907 153.666 154.374 151.825 154.375H87.51C85.6693 154.374 83.8678 154.907 82.3246 155.911C80.7814 156.914 79.563 158.344 78.8175 160.028L63.4275 193.99C63.1407 194.582 62.9945 195.232 63 195.89V200.64C63 202.849 63.8743 204.968 65.4318 206.535C66.9893 208.101 69.1036 208.987 71.3125 209H168.593C170.806 209 172.93 208.127 174.504 206.571C176.078 205.015 176.975 202.901 177 200.688V195.938C177.119 194.782 176.87 193.618 176.288 192.612ZM87.1775 164.588C87.2702 164.375 87.4231 164.194 87.6172 164.068C87.8113 163.941 88.0383 163.874 88.27 163.875H151.065C151.297 163.874 151.524 163.941 151.718 164.068C151.912 164.194 152.065 164.375 152.158 164.588L163.463 189.525C163.541 189.705 163.581 189.899 163.581 190.095C163.581 190.291 163.541 190.485 163.463 190.665C163.35 190.825 163.2 190.956 163.027 191.047C162.853 191.137 162.661 191.186 162.465 191.188H76.965C76.7685 191.19 76.5745 191.143 76.4004 191.052C76.2263 190.961 76.0776 190.828 75.9675 190.665C75.8759 190.489 75.8281 190.293 75.8281 190.095C75.8281 189.897 75.8759 189.701 75.9675 189.525L87.1775 164.588Z" fill="#222222"/>
</g>
<defs>
<clipPath id="clip0_103_118">
<rect width="114" height="114" fill="white" transform="translate(63 95)"/>
</clipPath>
</defs>
</svg>
